<svg xmlns="http://www.w3.org/2000/svg" viewBox="0 0 875.88 111.77"><defs><style>.a,.b{fill:#fff;}.a{fill-rule:evenodd;}</style></defs><title> simul_International_logo_02</title><path class="a" d="M254,433.06a14.8,14.8,0,0,0,7.15,12.75,15.17,15.17,0,0,0,22.38-10.19,14.37,14.37,0,0,0-1.11-8.92,15,15,0,0,0-28.1,3.47A12.74,12.74,0,0,0,254,433.06Zm-2.8,16.57a16.29,16.29,0,0,0-6.39,2.74c-1.17.84-2.75,2-4,2.95s-4.31,3.29-5.17,3.95-5.11,3.94-6.9,5.38-3.67,2.87-4.38,3.41-2.11,1.47-3.57,2.77-3.67,3.27-3.08,5.62,5,4.24,5.87,4.59a16.85,16.85,0,0,0,5,1,17.84,17.84,0,0,1,7.7,2.66c1.35,1,2.24,2.29,1.19,3.92s-2.44,3-3.38,4.87c-1.53,3.05.46,4.2,2.65,4.76,1.56.4,3,.56,3.64.72a19.37,19.37,0,0,1,3.54,1c1,.49,1.75,1,1.7,1.72s-.71,1.5-2,2.31a36.78,36.78,0,0,1-4.14,2.22c-2,1-3,2.35-2.74,3.15s.47,1.58,3.54,2.91c1.47.61,2.4.84,3.47,2.24s.19,3.59-.14,4.29-1.4,2.42-1.81,3.3-2.61,5.49,1.67,7.59c-1.42-.12-2.66-.2-3.44-.29s-3.43-.44-4.43-.6-4.57-.82-6.13-1.19-4.72-1.24-5.63-1.54-5.19-1.72-7.6-2.84a67.26,67.26,0,0,1-8.62-4.6,55.14,55.14,0,0,1-7.95-6.29,38.49,38.49,0,0,1-5.93-7.34,32.41,32.41,0,0,1-3.19-6.74,27.84,27.84,0,0,1-1.26-6.28,27.47,27.47,0,0,1,.45-7.81,31,31,0,0,1,3.24-8.48,39.64,39.64,0,0,1,5.94-7.86,53.23,53.23,0,0,1,6.09-5.22,61.52,61.52,0,0,1,16.32-8.41c1.3-.45,5.38-1.78,7.73-2.29s5.37-1.19,7.74-1.47,5.35-.7,8.47-.79S251.05,449.63,251.24,449.63Zm8.91.63a89.47,89.47,0,0,1,9.6,1.68,80.7,80.7,0,0,1,10.4,3.22,69.17,69.17,0,0,1,8.48,4,52.84,52.84,0,0,1,7.44,5,42.67,42.67,0,0,1,7.53,7.7,33.07,33.07,0,0,1,4.76,8.88,27.16,27.16,0,0,1,1.47,8.93,25.68,25.68,0,0,1-1.45,8.88,31,31,0,0,1-3.13,6.55,33.74,33.74,0,0,1-4.35,5.69,50.28,50.28,0,0,1-6.48,5.76,58.91,58.91,0,0,1-6.46,4.13,67.73,67.73,0,0,1-9.21,4.17,76.92,76.92,0,0,1-8.91,2.7,79.54,79.54,0,0,1-8.18,1.52c-2.94.42-5.71.58-7.07.67s-3.65.14-5.64.17a61.11,61.11,0,0,0,9.77-5c1.79-1.08,4.5-2.88,6.09-4s4.64-3.43,6.17-4.67,4.06-3.52,5.92-5.4a39.05,39.05,0,0,0,4.62-5.69,16.46,16.46,0,0,0,1.85-3.76,8.92,8.92,0,0,0,.5-3.91c-.68-2.48-4-2.9-6.76-3a76.49,76.49,0,0,0-10.23.84c-4.26.5-5.6.45-7.06.1a9.39,9.39,0,0,1-5.15-2.54,2.68,2.68,0,0,1-.19-3.69,26.52,26.52,0,0,1,3.12-2.75,23.53,23.53,0,0,0,2.71-2.73,26.63,26.63,0,0,0,1.56-2.23c.23-.4,1.7-2.48.91-4.22-1-2.2-3.8-2.45-4.85-2.47s-4.17.07-5.43.09a31.43,31.43,0,0,1-4.38-.35,4.18,4.18,0,0,1-2.45-1c-.85-.83,0-2.25.9-3.47s2.76-3.12,4.09-4.61,4.68-4.83,5.7-6.28a9.36,9.36,0,0,0,1.78-3.58,4.54,4.54,0,0,0-.52-3.67,5.55,5.55,0,0,0-3.51-2.28C254.32,449.73,257,449.92,260.15,450.26ZM365.07,502a17.27,17.27,0,0,1-6.64,14.07c-5.34,4.06-11.18,4.62-16.7,4.62a45.35,45.35,0,0,1-16.32-3l-1.93-8.82a32.12,32.12,0,0,0,16.71,5.34c1.84,0,6.42-.3,9.11-3.12a7.18,7.18,0,0,0,2-5.16c0-5.91-5.63-8.61-11.59-11.47-7.53-3.62-16.06-7.71-16.06-18.91A15.75,15.75,0,0,1,329.73,463c3.82-2.82,8.84-4.25,14.9-4.25a40.57,40.57,0,0,1,13.73,2.41v7.22a23.36,23.36,0,0,0-11.29-3.29c-4.67,0-9.38,2.35-9.38,7.62s5.12,7.36,8.5,8.84l1,.44.47.22c4.05,1.85,7.87,3.59,11.19,6.62C363.22,492.83,365.07,496.75,365.07,502Zm29.49-41.69c-2,3-1.94,6.85-1.89,10.35v38.55c-.05,3.46-.1,7.27,1.89,10.25H377c2-3,1.94-6.79,1.89-10.25l0-1.63v-35.3l0-1.62c.05-3.5.09-7.35-1.9-10.35ZM476.94,507c.44,4.35.93,8.8,3.39,12.47h-18a9,9,0,0,0,1.5-5.62s-3.26-33.2-3.26-33.2l-.14-1.4h-2.74l-.32,1.11L446,520.08a30.35,30.35,0,0,1-6.79-3.7c-3.48-2.39-4.61-5.63-6.05-9.73l-.44-1.24-8.88-25.17-.36-1h-2.67l-.14,1.41-3.08,32.65a9,9,0,0,0,1.69,6.16H408.37c2.15-3.18,2.57-7,2.94-10.65l.12-1.15,4.35-39.74a11.26,11.26,0,0,0-1.85-7.61h16.64l13.15,35.53,1.57,4.24,1.26-4.35,10.28-35.42h17.1a6.85,6.85,0,0,0-1.29,5.33l4.26,41Zm114.55,4.19-2.15,8.28h-35c2-3,1.94-6.79,1.89-10.25V470.64c.05-3.5.1-7.35-1.89-10.35h17.54c-2,3-1.95,6.89-1.9,10.41l0,1.66V511.3l.86.42c3.15,1.54,6.74,1.76,10.15,1.76A21.54,21.54,0,0,0,591.49,511.16Zm-65.84-12.28V470.64c.05-3.5.1-7.35-1.89-10.35H541c-2,3-1.95,6.85-1.9,10.35V498.4a48,48,0,0,1-.3,5.57,18.74,18.74,0,0,1-1.81,6.68,15.58,15.58,0,0,1-4.76,5.36A21.68,21.68,0,0,1,526,519.1a34.8,34.8,0,0,1-10.8,1.51c-5.23,0-10.71-1-14-3a16.18,16.18,0,0,1-8.51-13,57.49,57.49,0,0,1-.32-6.22V470.64c.05-3.5.1-7.35-1.9-10.35h17.28c-2,3-1.95,6.85-1.9,10.35v28.24c0,2.92-.73,11.94,4.91,14.93,5.08,2.68,11.34.64,13-2.86S525.65,505.37,525.65,498.88Z" transform="translate(-189.28 -418.21)"/><path class="b" d="M865.1,478.51l-6.35-17.81h-6.58a2.57,2.57,0,0,1,.51,1.55,8.7,8.7,0,0,1-.58,2.36c-.08.24-.15.47-.21.66l-4.75,14.12a10.31,10.31,0,0,1-1.66,3.37h4.39a2.47,2.47,0,0,1-.48-1.48,10,10,0,0,1,.65-2.74l.83-2.41.14-.41h7.68l.14.42s1.13,3.43,1.14,3.44a3.5,3.5,0,0,1,.3,1.52,2.67,2.67,0,0,1-.52,1.66h7.55a9.48,9.48,0,0,1-2-3.7Zm-8-4.87h-5.51l.25-.79,2.27-7,.14-.41h.91l.14.41,2.38,7,.27.8Z" transform="translate(-189.28 -418.21)"/><path class="b" d="M965.22,478.51l-6.36-17.81h-6.57a2.63,2.63,0,0,1,.5,1.55,8.65,8.65,0,0,1-.57,2.36c-.08.24-.16.47-.21.66l-4.75,14.12a10.31,10.31,0,0,1-1.66,3.37H950a2.4,2.4,0,0,1-.48-1.48,9.69,9.69,0,0,1,.65-2.74l.82-2.41.15-.41h7.68l.14.42s1.13,3.43,1.14,3.44a3.65,3.65,0,0,1,.3,1.52,2.67,2.67,0,0,1-.52,1.66h7.54a9.33,9.33,0,0,1-2-3.7Zm-8-4.87h-5.52l.26-.79,2.27-7,.13-.41h.92l.14.41,2.37,7,.28.8Z" transform="translate(-189.28 -418.21)"/><path class="b" d="M1051,481.19a7.41,7.41,0,0,1-5.45-2.08,10.2,10.2,0,0,1-2.58-7.37c0-7.25,3.62-8.77,6.66-8.77a10.49,10.49,0,0,1,5.07,1.33l-.16-3.28-4.62-.41a13.81,13.81,0,0,0-9.16,3,11.69,11.69,0,0,0-3.55,8.43,11.39,11.39,0,0,0,3.86,8.78c2.31,2.05,4.85,2.89,8.8,2.89a24.91,24.91,0,0,0,6.36-.74l1.14-3.43A14.53,14.53,0,0,1,1051,481.19Z" transform="translate(-189.28 -418.21)"/><path class="b" d="M796.23,480.57a10.19,10.19,0,0,1-3.84-.57l-.38-.15v-7.67h2.06a5.15,5.15,0,0,1,2.58.43v-2.76a6.65,6.65,0,0,1-.84,0H792V463h2.15a6.42,6.42,0,0,1,3.62.68v-3a7.31,7.31,0,0,1-.93,0H786.19a6.72,6.72,0,0,1,.69,3.81V479a6.65,6.65,0,0,1-.7,3.81h13.39l.81-3.15A7.61,7.61,0,0,1,796.23,480.57Z" transform="translate(-189.28 -418.21)"/><path class="b" d="M843.86,460.88h-4.2a7.84,7.84,0,0,1,.92,4.56v11l-1.1-1.49L829,460.88h-5.57c1.29,1.71,1.41,2.87,1.41,5.3v12.2a7.71,7.71,0,0,1-.94,4.56h4.22a7.85,7.85,0,0,1-.92-4.56v-9.94h1l.19.25,6.59,9.05.59.8a10,10,0,0,0,4.08,3.79,13.55,13.55,0,0,0,3.23,1.27V465.44A7.77,7.77,0,0,1,843.86,460.88Z" transform="translate(-189.28 -418.21)"/><path class="b" d="M943.78,460.72h-4.21a7.78,7.78,0,0,1,.93,4.56v11l-1.1-1.48L929,460.72h-5.57c1.29,1.71,1.41,2.87,1.41,5.3v12.2a7.7,7.7,0,0,1-.94,4.56h4.22a7.85,7.85,0,0,1-.92-4.56v-9.94h1l.19.25s6.6,9.05,6.59,9.05l.59.8a10,10,0,0,0,4.08,3.79,14,14,0,0,0,3.24,1.28V465.28A7.85,7.85,0,0,1,943.78,460.72Z" transform="translate(-189.28 -418.21)"/><path class="b" d="M1034.43,460.72h-4.21a7.78,7.78,0,0,1,.93,4.56v11l-1.1-1.48-10.45-14.08H1014c1.29,1.71,1.41,2.87,1.41,5.3v12.2a7.7,7.7,0,0,1-.94,4.56h4.22a7.85,7.85,0,0,1-.92-4.56v-9.94h1l.18.25,6.6,9.05.59.8a10,10,0,0,0,4.08,3.79,13.77,13.77,0,0,0,3.23,1.28V465.28A7.78,7.78,0,0,1,1034.43,460.72Z" transform="translate(-189.28 -418.21)"/><path class="b" d="M763.69,460.65h-4.21a7.82,7.82,0,0,1,.92,4.55v11l-1.1-1.49-10.44-14.07h-5.57c1.28,1.71,1.41,2.87,1.41,5.3v12.2a7.65,7.65,0,0,1-1,4.56H748a7.78,7.78,0,0,1-.93-4.56v-9.94h1l.18.25,6.6,9,.58.81a10.11,10.11,0,0,0,4.08,3.79,14,14,0,0,0,3.24,1.28V465.2A7.75,7.75,0,0,1,763.69,460.65Z" transform="translate(-189.28 -418.21)"/><path class="b" d="M917.4,463.84a12.19,12.19,0,0,0-8.81-3.21,12.79,12.79,0,0,0-9.12,3.5,11,11,0,0,0-3.19,8,11.32,11.32,0,0,0,3.21,8.24,12.18,12.18,0,0,0,8.69,3.32c5.93,0,12.31-3.63,12.31-11.6A11.34,11.34,0,0,0,917.4,463.84Zm-3.74,14.82a6.28,6.28,0,0,1-5.07,2.72,6.15,6.15,0,0,1-5.17-3.35,15.81,15.81,0,0,1-1.7-6.83c0-4,2-8.25,6.46-8.25a5.45,5.45,0,0,1,4,1.64c2.13,2.12,2.89,5.92,2.89,8.76A9,9,0,0,1,913.66,478.66Z" transform="translate(-189.28 -418.21)"/><path class="b" d="M814.89,472.18l-.34-.59.62-.27a5.61,5.61,0,0,0,3.73-5,5.25,5.25,0,0,0-2.74-4.85,7.79,7.79,0,0,0-4.12-.74h-9a6.71,6.71,0,0,1,.7,3.85v14.37a6.66,6.66,0,0,1-.7,3.84h6.53a6.66,6.66,0,0,1-.7-3.84V473.4l1.16-.28s4,7.71,4,7.69c1,1.92,1.89,2.19,4,2.06l3.37-.23a19.45,19.45,0,0,1-2.42-3.43Zm-5.31-.07-.72.14v-9.33h1a3.88,3.88,0,0,1,2.35.62A4.25,4.25,0,0,1,813.8,467,5.14,5.14,0,0,1,809.58,472.11Z" transform="translate(-189.28 -418.21)"/><path class="b" d="M767.55,460.79h-.19l-.85,3.42a6.2,6.2,0,0,1,3.17-.76,7.32,7.32,0,0,1,1.86.16l.47.11V479a6.77,6.77,0,0,1-.69,3.85h6.74a7.78,7.78,0,0,1-.91-4.53V463.73l.43-.13a6.45,6.45,0,0,1,1.93-.24,3.84,3.84,0,0,1,2.5.75l.73-3.32Z" transform="translate(-189.28 -418.21)"/><path class="b" d="M867.17,460.79H867l-.84,3.42a6.18,6.18,0,0,1,3.17-.76,7.32,7.32,0,0,1,1.86.16l.47.11V479a6.7,6.7,0,0,1-.71,3.85h6.75a7.78,7.78,0,0,1-.91-4.53V463.73l.43-.13a6.45,6.45,0,0,1,1.93-.24,3.84,3.84,0,0,1,2.5.75l.73-3.32Z" transform="translate(-189.28 -418.21)"/><path class="b" d="M733,460.61a6.75,6.75,0,0,1,.71,3.89V479a6.66,6.66,0,0,1-.71,3.86h6.59a6.66,6.66,0,0,1-.71-3.86V464.5a6.75,6.75,0,0,1,.71-3.89Z" transform="translate(-189.28 -418.21)"/><path class="b" d="M886.1,460.61a6.83,6.83,0,0,1,.72,3.89V479a6.75,6.75,0,0,1-.72,3.86h6.6A6.75,6.75,0,0,1,892,479V464.5a6.83,6.83,0,0,1,.72-3.89Z" transform="translate(-189.28 -418.21)"/><path class="b" d="M1003.14,460.61a6.75,6.75,0,0,1,.71,3.89V479a6.66,6.66,0,0,1-.71,3.86h6.59A6.66,6.66,0,0,1,1009,479V464.5a6.75,6.75,0,0,1,.71-3.89Z" transform="translate(-189.28 -418.21)"/><path class="b" d="M635.94,471.55a15.15,15.15,0,0,0-4.21-2.49l-.17-.08-.38-.17c-1.28-.56-3.2-1.39-3.2-3.33s1.77-2.86,3.53-2.86a8.77,8.77,0,0,1,4.24,1.24v-2.72a15.46,15.46,0,0,0-5.16-.9,9.22,9.22,0,0,0-5.6,1.6,5.89,5.89,0,0,0-2.29,4.68c0,4.2,3.2,5.75,6,7.1,2.24,1.08,4.36,2.1,4.36,4.32a2.69,2.69,0,0,1-.75,1.94,5,5,0,0,1-3.42,1.17,12.09,12.09,0,0,1-6.28-2l.73,3.32a17,17,0,0,0,6.13,1.14,9.81,9.81,0,0,0,6.28-1.73,6.52,6.52,0,0,0,2.49-5.29A6.18,6.18,0,0,0,635.94,471.55Z" transform="translate(-189.28 -418.21)"/><path class="b" d="M642.39,460.61a6.75,6.75,0,0,1,.71,3.89V479a6.66,6.66,0,0,1-.71,3.86H649a6.74,6.74,0,0,1-.71-3.86V464.5a6.83,6.83,0,0,1,.71-3.89Z" transform="translate(-189.28 -418.21)"/><path class="b" d="M679.36,478l-1.6-15.4a2.58,2.58,0,0,1,.48-2h-6.43L668,473.91l-.48,1.63-.59-1.59-4.94-13.36h-6.25a4.25,4.25,0,0,1,.69,2.86l-1.63,14.94,0,.43a8.52,8.52,0,0,1-1.1,4h4.1a3.44,3.44,0,0,1-.63-2.32l1.16-12.27,0-.53h1l.14.38,3.34,9.46.16.47c.54,1.54,1,2.76,2.27,3.66a11.81,11.81,0,0,0,2.56,1.39L672,468.13l.12-.42h1l.05.53s1.23,12.48,1.23,12.47a3.36,3.36,0,0,1-.56,2.12h6.77a10,10,0,0,1-1.28-4.69Z" transform="translate(-189.28 -418.21)"/><path class="b" d="M717.42,480.68a8.72,8.72,0,0,1-3.81-.66l-.33-.16V464.6a6.83,6.83,0,0,1,.71-3.92H707.4a6.83,6.83,0,0,1,.71,3.89v14.49a6.73,6.73,0,0,1-.71,3.86h13.14l.81-3.11A8.26,8.26,0,0,1,717.42,480.68Z" transform="translate(-189.28 -418.21)"/><path class="b" d="M980.66,480.68a8.72,8.72,0,0,1-3.81-.66l-.33-.16V464.6a6.76,6.76,0,0,1,.72-3.92h-6.6a6.75,6.75,0,0,1,.71,3.89v14.49a6.65,6.65,0,0,1-.71,3.86h13.14l.81-3.11A8.23,8.23,0,0,1,980.66,480.68Z" transform="translate(-189.28 -418.21)"/><path class="b" d="M1064.35,479a2.51,2.51,0,0,0-1.78-.74,2.59,2.59,0,0,0-1.84.75,2.91,2.91,0,0,0-.84,2.1,2.7,2.7,0,0,0,.81,1.91,2.4,2.4,0,0,0,1.7.74,2.79,2.79,0,0,0,1.95-4.76Z" transform="translate(-189.28 -418.21)"/><path class="b" d="M992.72,479.73l-3.77,6.8h-2.4l2.66-6.8Z" transform="translate(-189.28 -418.21)"/><path class="b" d="M697.16,475.14V464.43a6.87,6.87,0,0,0-.72-3.93H703a6.79,6.79,0,0,0-.72,3.93V475a18.69,18.69,0,0,1-.11,2.12,7,7,0,0,1-.69,2.53,5.86,5.86,0,0,1-1.8,2,8.24,8.24,0,0,1-2.4,1.17,13.21,13.21,0,0,1-4.1.58,11.14,11.14,0,0,1-5.32-1.15,6.38,6.38,0,0,1-2.13-1.88,6.53,6.53,0,0,1-1.1-3,22.71,22.71,0,0,1-.12-2.36V464.43a6.87,6.87,0,0,0-.72-3.93h6.55a6.79,6.79,0,0,0-.72,3.93v10.71c0,1.1-.28,4.53,1.86,5.66,1.93,1,4.31.24,4.92-1.09S697.16,477.59,697.16,475.14Z" transform="translate(-189.28 -418.21)"/><path class="b" d="M636.28,500.65a15.33,15.33,0,0,1-1.74,3.32l-2.63-1.52a12.47,12.47,0,0,0,.74-1h-3.22v2.16a22.33,22.33,0,0,0,3.61,4.45l-1.66,2.37a13.58,13.58,0,0,1-1.89-2.94h-.06v11.24h-2.5V506.55h0a23.62,23.62,0,0,1-3.06,6.64l-1.21-3.32a25.36,25.36,0,0,0,3.95-8.43h-3.42v-2.6h3.79V494.1h2.5v4.74h3.22v2.6h.05a21.51,21.51,0,0,0,2.4-6.48l2.74.4c-.16.74-.37,1.55-.71,2.71h2v-4h2.61v4h5.56v2.58h-5.56v3.69h6.08V507H642.6a19.93,19.93,0,0,0,5.67,6.9l-1.37,2.9a19.89,19.89,0,0,1-5.09-6.8h0v8.77h-2.61V510h0a21.77,21.77,0,0,1-5.9,6.53l-1.71-2.4a21.3,21.3,0,0,0,6.93-7.21h-5.77v-2.61h6.5v-3.69Z" transform="translate(-189.28 -418.21)"/><path class="b" d="M673.71,498.26h2.85v2.63h-7.9a38.76,38.76,0,0,0,2.05,11.43c.32.74,1.48,3.11,2.4,3.11s1.37-3,1.47-3.95l2.43,1.37c-.37,2-1.08,5.9-3.45,5.9-2.56,0-4.3-3-4.93-4.24-2.29-4.46-2.48-9.3-2.63-13.62H652v-2.63h13.88c0-1.4-.13-3.77-.16-4.19h2.8c0,1.34,0,2.32,0,4.19h4.77v-.06a24.82,24.82,0,0,0-3.93-2.31l1.59-2.06a27.18,27.18,0,0,1,4.24,2.51ZM652,515.14c.66,0,1-.11,1.32-.13.63-.11,3.58-.48,4.27-.58v-7.64h-5.14v-2.61h12.7v2.61h-4.85v7.3c3-.45,4.63-.77,5.66-1v2.48c-4.26.92-10.35,1.84-13.51,2.24Z" transform="translate(-189.28 -418.21)"/><path class="b" d="M700.77,519a19,19,0,0,0-1.08-1.78c-13.8.91-14.7,1-18.7,1l-.4-2.73,3.8-.06a41.34,41.34,0,0,0,2.53-6.11h-6.77v-2.55h23.73v2.55H690.16c-1.29,2.93-2,4.56-2.82,6.06,5.42-.13,6.69-.16,10.74-.4a30.78,30.78,0,0,0-3.1-3.76l2.23-1.37a37.55,37.55,0,0,1,6.09,7.58Zm-15.7-16.69a28.5,28.5,0,0,1-4.34,2.26L679.17,502c4.24-1.47,9.17-4.71,11.41-8.11h3c1.94,3.06,6.24,6,11.37,8l-1.68,2.63a42.2,42.2,0,0,1-4.24-2.34v1.5h-14Zm12.51-1.08v-.06a28.86,28.86,0,0,1-5.48-4.95,25.38,25.38,0,0,1-5.42,4.95v.06Z" transform="translate(-189.28 -418.21)"/><path class="b" d="M714.73,518.8h-2.68V508.63a17.63,17.63,0,0,1-3.19,2.45l-1.18-2.68a16.91,16.91,0,0,0,7.16-7.69h-6.79v-2.58h4V494h2.68v4.11h3.11v2.58c0,.55-2.1,3.71-2.66,4.45a18.64,18.64,0,0,0,3.69,3.24l-1.29,2.5a22.13,22.13,0,0,1-2.85-2.77Zm9-24.78h2.77v7.45h5.63v2.82h-5.63v10.82h6.24v2.82H717.1v-2.82h6.64V504.29h-5.5v-2.82h5.5Z" transform="translate(-189.28 -418.21)"/><path class="b" d="M760.49,494.91h3V500H768v2.74h-4.53v2.16c0,10.19-7.34,11.91-12.19,12.77L750.08,515c6.72-1,10.41-2.84,10.41-10v-2.19h-8.43v6.85h-3v-6.85h-4.45V500H749v-4.95h3V500h8.43Z" transform="translate(-189.28 -418.21)"/><path class="b" d="M781.11,517.93H778V506a39.75,39.75,0,0,1-9.75,4.61l-1.5-2.53a38.52,38.52,0,0,0,19-13l2.84,1.74a63.91,63.91,0,0,1-7.48,7Z" transform="translate(-189.28 -418.21)"/><path class="b" d="M804.56,517.48A47.53,47.53,0,0,0,794,507l2.16-2a38.69,38.69,0,0,1,4.88,3.72,21.36,21.36,0,0,0,7.87-8.33h-18.8V497.6h23.33c-1.37,5.58-5.48,9.9-10.35,13,1.77,1.77,3,3.29,4.16,4.61Z" transform="translate(-189.28 -418.21)"/><path class="b" d="M820.66,502.71c0,5.87-.85,11.82-5.06,15.62L813.31,516c3.45-2.51,4.29-7.56,4.29-12.75V496h3.06ZM827.77,514c5.76-1.4,7.29-8.11,7.69-10.19l2.68,1.13c-2.42,11.64-10.82,12.33-13.32,12.54V495.18h2.95Z" transform="translate(-189.28 -418.21)"/><path class="b" d="M844.76,509.19a2.76,2.76,0,1,1,2.74-2.77A2.77,2.77,0,0,1,844.76,509.19Z" transform="translate(-189.28 -418.21)"/><path class="b" d="M864.49,517.93h-3.14V506a39.73,39.73,0,0,1-9.74,4.61l-1.5-2.53a38.51,38.51,0,0,0,19-13l2.85,1.74a63.91,63.91,0,0,1-7.48,7Z" transform="translate(-189.28 -418.21)"/><path class="b" d="M882.3,503.05a29.55,29.55,0,0,0-7.95-3.87l1.42-2.58a28.5,28.5,0,0,1,8.16,3.61Zm-7.69,10.88c9.16-.66,15.35-3.82,19.22-15.7l3,1.34c-4,11.51-9.72,16.23-21.23,17.68Z" transform="translate(-189.28 -418.21)"/><path class="b" d="M906.4,504.24a22.26,22.26,0,0,1,6.11,3.74,16.5,16.5,0,0,0,3.16-6.88h-9.21a20.87,20.87,0,0,1-6.93,6.38l-2-2.22c4.61-2.39,7-5.58,8.83-10.3l3.19.61a29,29,0,0,1-1.4,2.79h11.22c-.69,4.14-2.95,16.23-18.49,19.83l-1.69-2.6a21.11,21.11,0,0,0,11.19-5.38,26,26,0,0,0-6-3.95Z" transform="translate(-189.28 -418.21)"/><path class="b" d="M944.41,504.66v3.19H921v-3.19Z" transform="translate(-189.28 -418.21)"/><path class="b" d="M957,500.76v-5.53h3.08v5.53h9.54v2.82H960v.47c0,7.06-3.77,11.56-10.3,13.75l-1.6-2.37c5.19-1.69,8.82-4.82,8.87-10.72l0-1.13H947v-2.82Z" transform="translate(-189.28 -418.21)"/><path class="b" d="M982,501.39a37.31,37.31,0,0,0-7.64-3l1.37-2.6a32.7,32.7,0,0,1,7.61,2.89Zm-2.24,5.87a36.2,36.2,0,0,0-7.38-3l1.37-2.66a30.28,30.28,0,0,1,7.38,2.9Zm-6,6.56c9.91-.52,14.52-3.9,17.91-14.3l2.87,1.27c-3.18,8.92-7.5,15.19-20,16.19Z" transform="translate(-189.28 -418.21)"/><path class="b" d="M1012.8,501.15v15.7H998v-2.63h12v-4.14H998.5v-2.6H1010v-3.74H998.29v-2.59Z" transform="translate(-189.28 -418.21)"/><path class="b" d="M1026.71,500.76v-5.53h3.09v5.53h9.53v2.82h-9.64v.47c0,7.06-3.77,11.56-10.3,13.75l-1.6-2.37c5.18-1.69,8.82-4.82,8.87-10.72l0-1.13h-10v-2.82Z" transform="translate(-189.28 -418.21)"/><path class="b" d="M1046.42,502.71c0,5.87-.85,11.82-5.06,15.62l-2.29-2.29c3.45-2.51,4.29-7.56,4.29-12.75V496h3.06Zm7.11,11.27c5.77-1.4,7.3-8.11,7.69-10.19l2.69,1.13c-2.43,11.64-10.83,12.33-13.33,12.54V495.18h3Z" transform="translate(-189.28 -418.21)"/></svg>